<svg xmlns="http://www.w3.org/2000/svg" width="18" height="18" viewBox="0 0 18 18" fill="none">
<path d="M9.00003 12.375C8.92616 12.3751 8.85299 12.3606 8.78475 12.3323C8.7165 12.304 8.65451 12.2625 8.60235 12.2102L2.97735 6.58522C2.75755 6.36543 2.75755 6.0095 2.97735 5.78985C3.19714 5.57019 3.55307 5.57005 3.77272 5.78985L9.00003 11.0172L14.2273 5.78985C14.4471 5.57005 14.8031 5.57005 15.0227 5.78985C15.2424 6.00964 15.2425 6.36557 15.0227 6.58522L9.39772 12.2102C9.34556 12.2625 9.28357 12.304 9.21532 12.3323C9.14707 12.3606 9.07391 12.3751 9.00003 12.375Z" fill="#172E49"/>
</svg>