<svg xmlns="http://www.w3.org/2000/svg" width="20" height="24" viewBox="0 0 20 24" fill="none">
  <path d="M14.5861 2H5.41382C2.42859 2 0 4.42859 0 7.41382V16.5863C0 19.5714 2.42859 22 5.41382 22H14.5863C17.5714 22 20 19.5714 20 16.5863V7.41382C20 4.42859 17.5714 2 14.5861 2ZM18.8275 16.5863C18.8275 18.9248 16.9248 20.8275 14.5861 20.8275H5.41382C3.07511 20.8275 1.1725 18.9248 1.1725 16.5863V7.41382C1.1725 5.07511 3.07511 3.1725 5.41382 3.1725H14.5863C16.9248 3.1725 18.8275 5.07511 18.8275 7.41382V16.5863Z" fill="#31CAFF"/>
  <path d="M9.99984 6.53102C6.98441 6.53102 4.53125 8.98414 4.53125 11.9996C4.53125 15.0151 6.98438 17.4682 9.99984 17.4682C13.0153 17.4682 15.4684 15.0151 15.4684 11.9996C15.4684 8.98414 13.0153 6.53102 9.99984 6.53102ZM9.99984 16.2957C7.63109 16.2957 5.70375 14.3686 5.70375 11.9996C5.70375 9.63086 7.63109 7.70352 9.99984 7.70352C12.3688 7.70352 14.2959 9.63086 14.2959 11.9996C14.2959 14.3686 12.3688 16.2957 9.99984 16.2957ZM15.5992 4.58887C14.7081 4.58887 13.9833 5.31383 13.9833 6.20477C13.9833 7.0959 14.7081 7.82082 15.5992 7.82082C16.4904 7.82082 17.2152 7.0959 17.2152 6.2048C17.2152 5.31371 16.4903 4.58887 15.5992 4.58887ZM15.5992 6.6482C15.3548 6.6482 15.1558 6.44922 15.1558 6.20477C15.1558 5.9602 15.3548 5.76137 15.5992 5.76137C15.8438 5.76137 16.0428 5.9602 16.0428 6.20477C16.0428 6.44922 15.8438 6.6482 15.5992 6.6482Z" fill="#31CAFF"/>
</svg>