<svg xmlns="http://www.w3.org/2000/svg" width="90" height="28" viewBox="0 0 90 28" fill="none">
  <g clip-path="url(#clip0_1_349)">
    <mask id="mask0_1_349" style="mask-type:luminance" maskUnits="userSpaceOnUse" x="6" y="-17" width="78" height="45">
      <path d="M84 -17H6V28H84V-17Z" fill="white"/>
    </mask>
    <g mask="url(#mask0_1_349)">
      <path d="M12.989 4.91066H8.30013V0.676514H6.23535V11.1708H8.30013V6.90601H12.989V11.1708H15.0557V0.676514H12.989V4.91066Z" fill="#172E49"/>
      <path d="M27.6708 2.16586C27.1709 1.6675 26.5982 1.27456 25.9546 0.988962C25.3091 0.703364 24.6196 0.561523 23.8879 0.561523C23.1562 0.561523 22.4533 0.70528 21.8078 0.988962C21.1623 1.27264 20.5954 1.66558 20.105 2.16586C19.6166 2.66422 19.2335 3.23733 18.9596 3.88328C18.6838 4.53115 18.5459 5.21544 18.5459 5.93806C18.5459 6.66068 18.6838 7.37372 18.9596 8.01967C19.2354 8.66562 19.6166 9.23299 20.105 9.72368C20.5954 10.2144 21.1623 10.5958 21.8078 10.8718C22.4533 11.1478 23.1466 11.2839 23.8879 11.2839C24.6291 11.2839 25.3072 11.1459 25.9546 10.8718C26.6001 10.5958 27.1728 10.2144 27.6708 9.72368C28.1688 9.23491 28.5576 8.66754 28.8391 8.01967C29.1207 7.37372 29.2586 6.67985 29.2586 5.93806C29.2586 5.19627 29.1188 4.53115 28.8391 3.88328C28.5595 3.23733 28.1688 2.66422 27.6708 2.16586ZM26.8797 7.24147C26.7169 7.6459 26.4947 8.00242 26.2093 8.31102C25.9239 8.62154 25.5907 8.86113 25.2057 9.03173C24.8207 9.20424 24.4031 9.28857 23.9588 9.28857C23.5144 9.28857 23.0624 9.20232 22.6697 9.03173C22.2751 8.86113 21.9285 8.62154 21.6297 8.31102C21.3309 8.00242 21.0972 7.6459 20.9325 7.24147C20.7639 6.83894 20.6815 6.40384 20.6815 5.93806C20.6815 5.47229 20.762 5.01993 20.9248 4.61166C21.0857 4.20339 21.3136 3.84495 21.6086 3.53635C21.9036 3.22775 22.2445 2.98815 22.6333 2.81756C23.0221 2.64697 23.4454 2.56071 23.9013 2.56071C24.3572 2.56071 24.7805 2.64697 25.1693 2.81756C25.5581 2.99007 25.899 3.22967 26.1883 3.53635C26.4775 3.84495 26.7054 4.2053 26.8721 4.61166C27.0387 5.02185 27.1211 5.4627 27.1211 5.93806C27.1211 6.41342 27.0406 6.83894 26.8778 7.24147" fill="#172E49"/>
      <path d="M39.2126 6.6645C39.5018 6.31373 39.7106 5.92271 39.8389 5.49527C39.9672 5.06783 40.0323 4.63848 40.0323 4.21104C40.0323 3.66859 39.9423 3.18365 39.7623 2.75046C39.5822 2.31727 39.3198 1.94733 38.9731 1.63873C38.6265 1.33013 38.1955 1.09245 37.6822 0.925693C37.1689 0.760851 36.5847 0.676514 35.9296 0.676514H32.7539V11.1708H34.8187V7.83373H36.1939L38.4081 11.1708H40.8157L38.3641 7.34112C38.6954 7.15136 38.9904 6.93477 39.2145 6.6645M34.8187 2.67187H36.2993C36.6613 2.67187 36.9486 2.73321 37.1612 2.8578C37.3738 2.98239 37.5328 3.13381 37.6381 3.31399C37.7435 3.49417 37.8105 3.67242 37.845 3.84877C37.8775 4.02511 37.8967 4.17078 37.8967 4.28387C37.8967 4.4353 37.8699 4.60014 37.8182 4.77648C37.7645 4.95283 37.6783 5.1215 37.5615 5.28251C37.4428 5.44544 37.278 5.57769 37.0693 5.68312C36.8605 5.78662 36.6 5.84029 36.2859 5.84029H34.8187V2.67379V2.67187Z" fill="#172E49"/>
      <path d="M46.014 0.676514H43.9492V11.1708H46.014V0.676514Z" fill="#172E49"/>
      <path d="M69.5135 2.16561C69.0136 1.66725 68.4409 1.27432 67.7974 0.988718C67.15 0.703119 66.4623 0.561279 65.7307 0.561279C64.999 0.561279 64.296 0.705036 63.6487 0.988718C63.0032 1.27432 62.4362 1.66534 61.9478 2.16561C61.4575 2.66397 61.0763 3.23709 60.8005 3.88304C60.5247 4.53091 60.3887 5.2152 60.3887 5.93782C60.3887 6.66044 60.5247 7.37348 60.8005 8.01943C61.0763 8.66538 61.4575 9.23274 61.9478 9.72344C62.4362 10.2141 63.0032 10.5956 63.6487 10.8716C64.296 11.1476 64.9894 11.2837 65.7307 11.2837C66.4719 11.2837 67.15 11.1457 67.7974 10.8716C68.4409 10.5956 69.0136 10.2141 69.5135 9.72344C70.0115 9.23466 70.4004 8.6673 70.6819 8.01943C70.9616 7.37348 71.1014 6.67961 71.1014 5.93782C71.1014 5.19603 70.9616 4.53091 70.6819 3.88304C70.4004 3.23709 70.0115 2.66397 69.5135 2.16561ZM68.7225 7.24122C68.5616 7.64566 68.3375 8.00218 68.0521 8.31078C67.7686 8.6213 67.4334 8.86089 67.0484 9.03148C66.6635 9.20399 66.2478 9.28833 65.8015 9.28833C65.3553 9.28833 64.9051 9.20208 64.5125 9.03148C64.1179 8.86089 63.7712 8.6213 63.4724 8.31078C63.1736 8.00218 62.94 7.64566 62.7733 7.24122C62.6067 6.8387 62.5243 6.40359 62.5243 5.93782C62.5243 5.47204 62.6048 5.01968 62.7676 4.61141C62.9285 4.20314 63.1564 3.8447 63.4514 3.53611C63.7444 3.22751 64.0873 2.98791 64.4761 2.81732C64.8668 2.64672 65.2882 2.56047 65.746 2.56047C66.2038 2.56047 66.6232 2.64672 67.014 2.81732C67.4009 2.98983 67.7418 3.22942 68.031 3.53611C68.3203 3.8447 68.5501 4.20506 68.7148 4.61141C68.8815 5.0216 68.9657 5.46246 68.9657 5.93782C68.9657 6.41318 68.8834 6.8387 68.7225 7.24122Z" fill="#172E49"/>
      <path d="M83.3814 11.5982H83.4369V0.676474H81.3568L81.399 6.9999L74.0765 0.262451H73.9922V11.1708H76.0857L76.0455 4.9662L83.3814 11.5982Z" fill="#172E49"/>
      <path d="M12.6636 25.7324C12.269 25.9126 11.794 26.0027 11.2424 26.0027C10.7635 26.0027 10.3326 25.9222 9.95334 25.7593C9.57218 25.5982 9.24657 25.3663 8.97458 25.0673C8.7026 24.7683 8.49382 24.4098 8.34634 23.992C8.20077 23.5741 8.12799 23.1141 8.12799 22.6081C8.12799 22.1346 8.20652 21.6938 8.36741 21.2893C8.52639 20.8849 8.74474 20.5322 9.02247 20.2275C9.29828 19.9227 9.61815 19.6869 9.98016 19.5221C10.3422 19.3553 10.7195 19.2729 11.1141 19.2729C11.6216 19.2729 12.0698 19.3707 12.4587 19.5643C12.8494 19.7598 13.1616 19.9476 13.3953 20.1278L14.1978 18.1746C13.8588 17.9561 13.4221 17.751 12.8877 17.5612C12.3533 17.3715 11.7366 17.2756 11.0413 17.2756C10.2904 17.2756 9.60474 17.4098 8.98608 17.6762C8.36549 17.9427 7.83302 18.3164 7.38673 18.8014C6.94045 19.2882 6.59951 19.8614 6.35818 20.5265C6.11875 21.1935 6 21.9257 6 22.7231C6 23.4361 6.11684 24.107 6.35051 24.7338C6.58611 25.3625 6.92704 25.9164 7.37333 26.4033C7.8177 26.8882 8.36358 27.2697 9.00715 27.5514C9.65071 27.8313 10.3805 27.9808 11.1983 28C11.7346 28.0095 12.2231 27.952 12.6636 27.8274C13.1041 27.7048 13.4796 27.561 13.7841 27.4019C14.0906 27.239 14.2974 27.1125 14.4123 27.0167L13.5677 25.1631C13.3608 25.3625 13.0601 25.5522 12.6655 25.7343" fill="#172E49"/>
      <path d="M25.545 23.3788C25.8304 23.0281 26.0372 22.637 26.1656 22.2096C26.292 21.7822 26.3552 21.3547 26.3552 20.9254C26.3552 20.3848 26.2652 19.898 26.087 19.4648C25.907 19.0316 25.6484 18.6617 25.3036 18.3531C24.9608 18.0445 24.5356 17.8068 24.028 17.6381C23.5204 17.4733 22.9439 17.3889 22.2965 17.3889H19.1553V27.8832H21.199V24.5461H22.5608L24.7501 27.8832H27.1309L24.706 24.0535C25.0336 23.8638 25.3266 23.6472 25.545 23.3769M21.199 19.3862H22.6642C23.0224 19.3862 23.304 19.4475 23.5166 19.5702C23.7273 19.6948 23.8843 19.8462 23.9878 20.0264C24.0931 20.2085 24.1602 20.3867 24.1927 20.5612C24.2253 20.7375 24.2425 20.8813 24.2425 20.9963C24.2425 21.1477 24.2157 21.3125 24.1659 21.487C24.1142 21.6633 24.028 21.832 23.9112 21.993C23.7943 22.154 23.6315 22.2882 23.4247 22.3917C23.2178 22.4952 22.9592 22.5489 22.6489 22.5489H21.199V19.3843V19.3862Z" fill="#172E49"/>
      <path d="M37.1555 24.0073C37.1555 24.3408 37.0578 24.659 36.8663 24.9619C36.6728 25.2647 36.4123 25.512 36.0848 25.7037C35.7553 25.8934 35.3799 25.9873 34.9585 25.9873C34.5736 25.9873 34.2192 25.8934 33.8955 25.7037C33.5699 25.512 33.3113 25.2647 33.1121 24.9619C32.9148 24.6571 32.8171 24.3389 32.8171 24.0073V17.3906H30.7734V24.0495C30.7734 24.82 30.9611 25.5005 31.3366 26.0966C31.712 26.6908 32.2176 27.1566 32.8497 27.492C33.4856 27.8313 34.1866 27.9999 34.9566 27.9999C35.7266 27.9999 36.4449 27.8313 37.0827 27.492C37.7224 27.1546 38.23 26.6889 38.6035 26.0966C38.9789 25.5024 39.1685 24.82 39.1685 24.0495V17.3906H37.1536V24.0073H37.1555Z" fill="#172E49"/>
      <path d="M45.9763 17.3909H43.9326V27.8852H45.9763V17.3909Z" fill="#172E49"/>
      <path d="M54.7674 19.1734C55.1236 19.1734 55.5067 19.2443 55.9147 19.3881C56.3246 19.5318 56.7249 19.712 57.1195 19.9286L57.8933 18.3473C57.4795 18.0712 57.0141 17.8336 56.4931 17.6342C55.9721 17.4349 55.2922 17.3352 54.4571 17.3352C53.8193 17.364 53.2542 17.5077 52.7658 17.7703C52.2774 18.031 51.9001 18.3856 51.6319 18.8322C51.3657 19.2788 51.2297 19.8078 51.2297 20.4155C51.2297 20.9196 51.3216 21.3451 51.5055 21.692C51.6894 22.039 51.9269 22.3284 52.2237 22.5622C52.5206 22.7961 52.8367 22.9935 53.1738 23.1526C53.5128 23.3155 53.8422 23.4574 54.1621 23.58C54.4341 23.6855 54.685 23.8081 54.9149 23.95C55.1447 24.0937 55.3267 24.249 55.4646 24.4196C55.5986 24.5921 55.6695 24.7819 55.6695 24.9908C55.6695 25.2955 55.5872 25.5332 55.4224 25.7038C55.2577 25.8763 55.0508 25.9952 54.8018 26.068C54.5528 26.1389 54.3058 26.1734 54.0625 26.1734C53.8193 26.1734 53.5511 26.1351 53.2581 26.0584C52.9688 25.9837 52.6796 25.8763 52.3923 25.7383C52.105 25.6003 51.8407 25.4412 51.5955 25.261L50.6934 26.873C51.0592 27.1299 51.4404 27.3407 51.8349 27.5056C52.2295 27.6723 52.6317 27.7969 53.0397 27.8755C53.4477 27.956 53.8499 27.9982 54.2445 27.9982C55.0145 27.9982 55.6619 27.8583 56.1886 27.5765C56.7134 27.2967 57.1118 26.9286 57.3857 26.4724C57.6577 26.0163 57.7937 25.5217 57.7937 24.9889C57.7937 24.4848 57.7228 24.0592 57.583 23.7123C57.4412 23.3654 57.2535 23.0759 57.0179 22.8421C56.7843 22.6102 56.518 22.4146 56.2231 22.2575C55.9281 22.1003 55.6293 21.9642 55.3286 21.8492C55.0011 21.7265 54.6831 21.5885 54.3786 21.4371C54.0721 21.2857 53.825 21.1112 53.6316 20.9176C53.4381 20.7221 53.3423 20.5017 53.3423 20.2544C53.3423 19.8922 53.4687 19.6238 53.7216 19.4417C53.9763 19.2616 54.323 19.1715 54.7655 19.1715" fill="#172E49"/>
      <path d="M65.8387 23.6223H70.2919V21.625H65.8387V19.3881H70.8685V17.3909H63.7969V27.8852H71.0657V25.8879H65.8387V23.6223Z" fill="#172E49"/>
      <path d="M83.1263 22.844C82.8888 22.6101 82.6245 22.4146 82.3295 22.2594C82.0326 22.1022 81.7338 21.968 81.435 21.853C81.1056 21.7303 80.7876 21.5923 80.485 21.439C80.1785 21.2875 79.9295 21.1131 79.7361 20.9176C79.5445 20.724 79.4488 20.5017 79.4488 20.2544C79.4488 19.8941 79.5733 19.6238 79.828 19.4417C80.0828 19.2615 80.4294 19.1714 80.8719 19.1714C81.2262 19.1714 81.6112 19.2424 82.0192 19.3861C82.4272 19.528 82.8294 19.71 83.2221 19.9286L83.9978 18.3453C83.5841 18.0693 83.1186 17.8316 82.5957 17.6323C82.0748 17.4329 81.3967 17.3333 80.5616 17.3333C79.9219 17.362 79.3587 17.5077 78.8722 17.7684C78.3838 18.029 78.0046 18.3836 77.7364 18.8302C77.4683 19.2769 77.3342 19.8059 77.3342 20.4135C77.3342 20.9176 77.4261 21.3431 77.61 21.6901C77.7939 22.037 78.0314 22.3264 78.3283 22.5603C78.6232 22.7941 78.9412 22.9916 79.2783 23.1526C79.6173 23.3155 79.9468 23.4573 80.2647 23.58C80.5367 23.6835 80.7876 23.8081 81.0194 23.9499C81.2492 24.0937 81.4331 24.249 81.5691 24.4215C81.7032 24.5921 81.7721 24.7837 81.7721 24.9907C81.7721 25.2955 81.6898 25.5332 81.525 25.7038C81.3622 25.8744 81.1535 25.9951 80.9064 26.068C80.6574 26.1389 80.4103 26.1734 80.167 26.1734C79.9238 26.1734 79.6556 26.1351 79.3626 26.0584C79.0714 25.9836 78.7841 25.8763 78.4987 25.7383C78.2095 25.6003 77.9452 25.4412 77.7 25.261L76.7998 26.873C77.1656 27.1299 77.5449 27.3407 77.9414 27.5075C78.3359 27.6742 78.7363 27.7969 79.1461 27.8774C79.5541 27.9579 79.9563 28.0001 80.349 28.0001C81.119 28.0001 81.7683 27.8602 82.295 27.5784C82.8198 27.2985 83.2202 26.9305 83.4921 26.4743C83.7641 26.0162 83.9001 25.5236 83.9001 24.9907C83.9001 24.4866 83.8292 24.0611 83.6875 23.7142C83.5477 23.3672 83.36 23.0778 83.1263 22.8459" fill="#172E49"/>
      <path d="M58.3436 0.665003H50.2549V2.66036H52.3025C52.335 2.66228 52.3676 2.67186 52.4001 2.67186H54.7599C54.5741 2.96513 54.396 3.25072 54.2293 3.51332C53.9573 3.94076 53.6547 4.4257 53.3176 4.96815C52.9805 5.5106 52.6338 6.06646 52.2776 6.63574C52.2354 6.70283 52.1971 6.76416 52.155 6.83125L49.4141 11.1593L49.5137 11.0462C49.4868 11.0884 49.4619 11.1267 49.437 11.1689H57.5276V9.17162H52.9862L58.3704 0.674586H58.3416L58.3474 0.663086" fill="#172E49"/>
    </g>
  </g>
  <defs>
    <clipPath id="clip0_1_349">
      <rect width="90" height="28" fill="white"/>
    </clipPath>
  </defs>
</svg>