<svg xmlns="http://www.w3.org/2000/svg" width="90" height="28" viewBox="0 0 90 28" fill="none">
  <g clip-path="url(#clip0_1_281)">
    <mask id="mask0_1_281" style="mask-type:luminance" maskUnits="userSpaceOnUse" x="6" y="-17" width="78" height="45">
      <path d="M84 -17H6V28H84V-17Z" fill="white"/>
    </mask>
    <g mask="url(#mask0_1_281)">
      <path d="M12.989 4.9109H8.30013V0.676758H6.23535V11.1711H8.30013V6.90626H12.989V11.1711H15.0557V0.676758H12.989V4.9109Z" fill="white"/>
      <path d="M27.6708 2.16578C27.1709 1.66742 26.5982 1.27448 25.9546 0.988886C25.3091 0.703287 24.6196 0.561447 23.8879 0.561447C23.1562 0.561447 22.4533 0.705204 21.8078 0.988886C21.1623 1.27257 20.5954 1.66551 20.105 2.16578C19.6166 2.66414 19.2335 3.23726 18.9596 3.88321C18.6838 4.53108 18.5459 5.21536 18.5459 5.93798C18.5459 6.66061 18.6838 7.37365 18.9596 8.0196C19.2354 8.66555 19.6166 9.23291 20.105 9.72361C20.5954 10.2143 21.1623 10.5957 21.8078 10.8718C22.4533 11.1478 23.1466 11.2839 23.8879 11.2839C24.6291 11.2839 25.3072 11.1458 25.9546 10.8718C26.6001 10.5957 27.1728 10.2143 27.6708 9.72361C28.1688 9.23483 28.5576 8.66747 28.8391 8.0196C29.1207 7.37365 29.2586 6.67977 29.2586 5.93798C29.2586 5.1962 29.1188 4.53108 28.8391 3.88321C28.5595 3.23726 28.1688 2.66414 27.6708 2.16578ZM26.8797 7.24139C26.7169 7.64583 26.4947 8.00235 26.2093 8.31095C25.9239 8.62146 25.5907 8.86106 25.2057 9.03165C24.8207 9.20416 24.4031 9.2885 23.9588 9.2885C23.5144 9.2885 23.0624 9.20224 22.6697 9.03165C22.2751 8.86106 21.9285 8.62146 21.6297 8.31095C21.3309 8.00235 21.0972 7.64583 20.9325 7.24139C20.7639 6.83887 20.6815 6.40376 20.6815 5.93798C20.6815 5.47221 20.762 5.01985 20.9248 4.61158C21.0857 4.20331 21.3136 3.84487 21.6086 3.53627C21.9036 3.22767 22.2445 2.98808 22.6333 2.81748C23.0221 2.64689 23.4454 2.56064 23.9013 2.56064C24.3572 2.56064 24.7805 2.64689 25.1693 2.81748C25.5581 2.98999 25.899 3.22959 26.1883 3.53627C26.4775 3.84487 26.7054 4.20523 26.8721 4.61158C27.0387 5.02177 27.1211 5.46263 27.1211 5.93798C27.1211 6.41334 27.0406 6.83887 26.8778 7.24139" fill="white"/>
      <path d="M39.2126 6.66475C39.5018 6.31398 39.7106 5.92296 39.8389 5.49552C39.9672 5.06808 40.0323 4.63872 40.0323 4.21128C40.0323 3.66884 39.9423 3.18389 39.7623 2.7507C39.5822 2.31751 39.3198 1.94758 38.9731 1.63898C38.6265 1.33038 38.1955 1.0927 37.6822 0.925937C37.1689 0.761095 36.5847 0.676758 35.9296 0.676758H32.7539V11.1711H34.8187V7.83397H36.1939L38.4081 11.1711H40.8157L38.3641 7.34136C38.6954 7.1516 38.9904 6.93501 39.2145 6.66475M34.8187 2.67211H36.2993C36.6613 2.67211 36.9486 2.73345 37.1612 2.85804C37.3738 2.98263 37.5328 3.13406 37.6381 3.31423C37.7435 3.49441 37.8105 3.67267 37.845 3.84901C37.8775 4.02535 37.8967 4.17103 37.8967 4.28412C37.8967 4.43554 37.8699 4.60038 37.8182 4.77673C37.7645 4.95307 37.6783 5.12175 37.5615 5.28275C37.4428 5.44568 37.278 5.57794 37.0693 5.68336C36.8605 5.78686 36.6 5.84054 36.2859 5.84054H34.8187V2.67403V2.67211Z" fill="white"/>
      <path d="M46.014 0.676758H43.9492V11.1711H46.014V0.676758Z" fill="white"/>
      <path d="M69.5135 2.16586C69.0136 1.6675 68.4409 1.27456 67.7974 0.988962C67.15 0.703364 66.4623 0.561523 65.7307 0.561523C64.999 0.561523 64.296 0.70528 63.6487 0.988962C63.0032 1.27456 62.4362 1.66558 61.9478 2.16586C61.4575 2.66422 61.0763 3.23733 60.8005 3.88328C60.5247 4.53115 60.3887 5.21544 60.3887 5.93806C60.3887 6.66068 60.5247 7.37372 60.8005 8.01967C61.0763 8.66562 61.4575 9.23299 61.9478 9.72368C62.4362 10.2144 63.0032 10.5958 63.6487 10.8718C64.296 11.1478 64.9894 11.2839 65.7307 11.2839C66.4719 11.2839 67.15 11.1459 67.7974 10.8718C68.4409 10.5958 69.0136 10.2144 69.5135 9.72368C70.0115 9.23491 70.4004 8.66754 70.6819 8.01967C70.9616 7.37372 71.1014 6.67985 71.1014 5.93806C71.1014 5.19627 70.9616 4.53115 70.6819 3.88328C70.4004 3.23733 70.0115 2.66422 69.5135 2.16586ZM68.7225 7.24147C68.5616 7.6459 68.3375 8.00242 68.0521 8.31102C67.7686 8.62154 67.4334 8.86113 67.0484 9.03173C66.6635 9.20424 66.2478 9.28857 65.8015 9.28857C65.3553 9.28857 64.9051 9.20232 64.5125 9.03173C64.1179 8.86113 63.7712 8.62154 63.4724 8.31102C63.1736 8.00242 62.94 7.6459 62.7733 7.24147C62.6067 6.83894 62.5243 6.40384 62.5243 5.93806C62.5243 5.47229 62.6048 5.01993 62.7676 4.61166C62.9285 4.20339 63.1564 3.84495 63.4514 3.53635C63.7444 3.22775 64.0873 2.98815 64.4761 2.81756C64.8668 2.64697 65.2882 2.56071 65.746 2.56071C66.2038 2.56071 66.6232 2.64697 67.014 2.81756C67.4009 2.99007 67.7418 3.22967 68.031 3.53635C68.3203 3.84495 68.5501 4.2053 68.7148 4.61166C68.8815 5.02185 68.9657 5.4627 68.9657 5.93806C68.9657 6.41342 68.8834 6.83894 68.7225 7.24147Z" fill="white"/>
      <path d="M83.3814 11.5985H83.4369V0.676718H81.3568L81.399 7.00014L74.0765 0.262695H73.9922V11.171H76.0857L76.0455 4.96645L83.3814 11.5985Z" fill="white"/>
      <path d="M12.6636 25.7322C12.269 25.9124 11.794 26.0024 11.2424 26.0024C10.7635 26.0024 10.3326 25.9219 9.95334 25.759C9.57218 25.598 9.24657 25.3661 8.97458 25.0671C8.7026 24.768 8.49382 24.4096 8.34634 23.9917C8.20077 23.5739 8.12799 23.1139 8.12799 22.6078C8.12799 22.1344 8.20652 21.6935 8.36741 21.2891C8.52639 20.8847 8.74474 20.532 9.02247 20.2272C9.29828 19.9224 9.61815 19.6867 9.98016 19.5218C10.3422 19.3551 10.7195 19.2727 11.1141 19.2727C11.6216 19.2727 12.0698 19.3704 12.4587 19.564C12.8494 19.7595 13.1616 19.9474 13.3953 20.1275L14.1978 18.1744C13.8588 17.9558 13.4221 17.7507 12.8877 17.561C12.3533 17.3712 11.7366 17.2754 11.0413 17.2754C10.2904 17.2754 9.60474 17.4096 8.98608 17.676C8.36549 17.9424 7.83302 18.3162 7.38673 18.8011C6.94045 19.288 6.59951 19.8611 6.35818 20.5262C6.11875 21.1933 6 21.9255 6 22.7228C6 23.4359 6.11684 24.1068 6.35051 24.7335C6.58611 25.3622 6.92704 25.9162 7.37333 26.403C7.8177 26.888 8.36358 27.2694 9.00715 27.5512C9.65071 27.831 10.3805 27.9805 11.1983 27.9997C11.7346 28.0093 12.2231 27.9518 12.6636 27.8272C13.1041 27.7045 13.4796 27.5608 13.7841 27.4017C14.0906 27.2388 14.2974 27.1123 14.4123 27.0164L13.5677 25.1629C13.3608 25.3622 13.0601 25.552 12.6655 25.7341" fill="white"/>
      <path d="M25.545 23.3786C25.8304 23.0278 26.0372 22.6368 26.1656 22.2093C26.292 21.7819 26.3552 21.3545 26.3552 20.9251C26.3552 20.3846 26.2652 19.8977 26.087 19.4645C25.907 19.0313 25.6484 18.6614 25.3036 18.3528C24.9608 18.0442 24.5356 17.8065 24.028 17.6379C23.5204 17.473 22.9439 17.3887 22.2965 17.3887H19.1553V27.883H21.199V24.5459H22.5608L24.7501 27.883H27.1309L24.706 24.0533C25.0336 23.8635 25.3266 23.6469 25.545 23.3767M21.199 19.3859H22.6642C23.0224 19.3859 23.304 19.4473 23.5166 19.57C23.7273 19.6945 23.8843 19.846 23.9878 20.0261C24.0931 20.2082 24.1602 20.3865 24.1927 20.5609C24.2253 20.7373 24.2425 20.881 24.2425 20.996C24.2425 21.1475 24.2157 21.3123 24.1659 21.4867C24.1142 21.6631 24.028 21.8317 23.9112 21.9928C23.7943 22.1538 23.6315 22.2879 23.4247 22.3914C23.2178 22.4949 22.9592 22.5486 22.6489 22.5486H21.199V19.384V19.3859Z" fill="white"/>
      <path d="M37.1555 24.0074C37.1555 24.3409 37.0578 24.6591 36.8663 24.9619C36.6728 25.2648 36.4123 25.512 36.0848 25.7037C35.7553 25.8935 35.3799 25.9874 34.9585 25.9874C34.5736 25.9874 34.2192 25.8935 33.8955 25.7037C33.5699 25.512 33.3113 25.2648 33.1121 24.9619C32.9148 24.6572 32.8171 24.339 32.8171 24.0074V17.3907H30.7734V24.0495C30.7734 24.8201 30.9611 25.5005 31.3366 26.0967C31.712 26.6909 32.2176 27.1566 32.8497 27.4921C33.4856 27.8313 34.1866 28 34.9566 28C35.7266 28 36.4449 27.8313 37.0827 27.4921C37.7224 27.1547 38.23 26.6889 38.6035 26.0967C38.9789 25.5025 39.1685 24.8201 39.1685 24.0495V17.3907H37.1536V24.0074H37.1555Z" fill="white"/>
      <path d="M45.9763 17.3906H43.9326V27.8849H45.9763V17.3906Z" fill="white"/>
      <path d="M54.7674 19.1733C55.1236 19.1733 55.5067 19.2442 55.9147 19.388C56.3246 19.5317 56.7249 19.7119 57.1195 19.9285L57.8933 18.3472C57.4795 18.0711 57.0141 17.8335 56.4931 17.6341C55.9721 17.4348 55.2922 17.3351 54.4571 17.3351C53.8193 17.3638 53.2542 17.5076 52.7658 17.7702C52.2774 18.0309 51.9001 18.3855 51.6319 18.8321C51.3657 19.2787 51.2297 19.8077 51.2297 20.4153C51.2297 20.9195 51.3216 21.345 51.5055 21.6919C51.6894 22.0388 51.9269 22.3283 52.2237 22.5621C52.5206 22.796 52.8367 22.9934 53.1738 23.1525C53.5128 23.3154 53.8422 23.4573 54.1621 23.5799C54.4341 23.6854 54.685 23.808 54.9149 23.9499C55.1447 24.0936 55.3267 24.2489 55.4646 24.4195C55.5986 24.592 55.6695 24.7817 55.6695 24.9907C55.6695 25.2954 55.5872 25.5331 55.4224 25.7037C55.2577 25.8762 55.0508 25.9951 54.8018 26.0679C54.5528 26.1388 54.3058 26.1733 54.0625 26.1733C53.8193 26.1733 53.5511 26.135 53.2581 26.0583C52.9688 25.9836 52.6796 25.8762 52.3923 25.7382C52.105 25.6002 51.8407 25.4411 51.5955 25.2609L50.6934 26.8729C51.0592 27.1298 51.4404 27.3406 51.8349 27.5055C52.2295 27.6722 52.6317 27.7968 53.0397 27.8754C53.4477 27.9559 53.8499 27.9981 54.2445 27.9981C55.0145 27.9981 55.6619 27.8582 56.1886 27.5764C56.7134 27.2965 57.1118 26.9285 57.3857 26.4723C57.6577 26.0161 57.7937 25.5216 57.7937 24.9888C57.7937 24.4846 57.7228 24.0591 57.583 23.7122C57.4412 23.3653 57.2535 23.0758 57.0179 22.842C56.7843 22.61 56.518 22.4145 56.2231 22.2574C55.9281 22.1002 55.6293 21.9641 55.3286 21.8491C55.0011 21.7264 54.6831 21.5884 54.3786 21.437C54.0721 21.2856 53.825 21.1111 53.6316 20.9175C53.4381 20.722 53.3423 20.5016 53.3423 20.2543C53.3423 19.8921 53.4687 19.6237 53.7216 19.4416C53.9763 19.2614 54.323 19.1714 54.7655 19.1714" fill="white"/>
      <path d="M65.8387 23.622H70.2919V21.6248H65.8387V19.3879H70.8685V17.3906H63.7969V27.8849H71.0657V25.8877H65.8387V23.622Z" fill="white"/>
      <path d="M83.1263 22.8437C82.8888 22.6099 82.6245 22.4144 82.3295 22.2591C82.0326 22.1019 81.7338 21.9678 81.435 21.8528C81.1056 21.7301 80.7876 21.5921 80.485 21.4387C80.1785 21.2873 79.9295 21.1129 79.7361 20.9174C79.5445 20.7238 79.4488 20.5014 79.4488 20.2542C79.4488 19.8938 79.5733 19.6235 79.828 19.4415C80.0828 19.2613 80.4294 19.1712 80.8719 19.1712C81.2262 19.1712 81.6112 19.2421 82.0192 19.3859C82.4272 19.5277 82.8294 19.7098 83.2221 19.9283L83.9978 18.3451C83.5841 18.069 83.1186 17.8314 82.5957 17.632C82.0748 17.4327 81.3967 17.333 80.5616 17.333C79.9219 17.3618 79.3587 17.5074 78.8722 17.7681C78.3838 18.0288 78.0046 18.3834 77.7364 18.83C77.4683 19.2766 77.3342 19.8056 77.3342 20.4133C77.3342 20.9174 77.4261 21.3429 77.61 21.6898C77.7939 22.0368 78.0314 22.3262 78.3283 22.56C78.6232 22.7939 78.9412 22.9913 79.2783 23.1523C79.6173 23.3152 79.9468 23.4571 80.2647 23.5798C80.5367 23.6833 80.7876 23.8079 81.0194 23.9497C81.2492 24.0935 81.4331 24.2487 81.5691 24.4212C81.7032 24.5918 81.7721 24.7835 81.7721 24.9905C81.7721 25.2953 81.6898 25.5329 81.525 25.7035C81.3622 25.8741 81.1535 25.9949 80.9064 26.0677C80.6574 26.1386 80.4103 26.1732 80.167 26.1732C79.9238 26.1732 79.6556 26.1348 79.3626 26.0581C79.0714 25.9834 78.7841 25.8761 78.4987 25.738C78.2095 25.6 77.9452 25.4409 77.7 25.2608L76.7998 26.8728C77.1656 27.1296 77.5449 27.3405 77.9414 27.5072C78.3359 27.674 78.7363 27.7967 79.1461 27.8772C79.5541 27.9577 79.9563 27.9998 80.349 27.9998C81.119 27.9998 81.7683 27.8599 82.295 27.5781C82.8198 27.2983 83.2202 26.9303 83.4921 26.4741C83.7641 26.016 83.9001 25.5234 83.9001 24.9905C83.9001 24.4864 83.8292 24.0609 83.6875 23.7139C83.5477 23.367 83.36 23.0776 83.1263 22.8456" fill="white"/>
      <path d="M58.3436 0.664942H50.2549V2.6603H52.3025C52.335 2.66222 52.3676 2.6718 52.4001 2.6718H54.7599C54.5741 2.96506 54.396 3.25066 54.2293 3.51326C53.9573 3.9407 53.6547 4.42564 53.3176 4.96809C52.9805 5.51053 52.6338 6.0664 52.2776 6.63568C52.2354 6.70276 52.1971 6.7641 52.155 6.83119L49.4141 11.1593L49.5137 11.0462C49.4868 11.0883 49.4619 11.1267 49.437 11.1688H57.5276V9.17156H52.9862L58.3704 0.674525H58.3416L58.3474 0.663025" fill="white"/>
    </g>
  </g>
  <defs>
    <clipPath id="clip0_1_281">
      <rect width="90" height="28" fill="white"/>
    </clipPath>
  </defs>
</svg>