<svg xmlns="http://www.w3.org/2000/svg" width="37" height="28" viewBox="0 0 37 28" fill="none">
<path d="M16.0601 11.7549V16.3904C9.01587 17.22 2.90372 21.5835 0.0716984 28H5.68645C8.00315 24.541 11.7672 22.1835 16.0601 21.532V28H20.9444V21.532C25.2373 22.1835 29.0058 24.541 31.318 28H36.9328C34.1008 21.5835 27.9886 17.22 20.9444 16.3904V11.7549C28.011 10.9253 34.1814 6.44928 37 0H31.4121C29.1089 3.53867 25.2955 5.95246 20.9444 6.61332V0H16.0601V6.61332C11.709 5.95246 7.89561 3.53867 5.59235 0H0C2.81858 6.45397 8.98898 10.9253 16.0601 11.7549Z" fill="#3AA7CD"/>
</svg>