<svg xmlns="http://www.w3.org/2000/svg" width="23" height="24" viewBox="0 0 23 24" fill="none">
  <g clip-path="url(#clip0_1_314)">
    <path d="M22.6479 3.5345C22.3672 3.18985 21.9458 3 21.4614 3C21.2 3 20.9231 3.05472 20.6384 3.16258L1.16603 10.5404C0.130675 10.9327 -0.00867767 11.5233 0.000396889 11.8405C0.00942652 12.156 0.18063 12.7334 1.22277 13.0668L5.35236 14.5801L7.52877 19.562C7.74755 20.251 8.20469 20.7344 8.78816 20.8912C8.92191 20.9271 9.05982 20.9453 9.19831 20.9452C9.67216 20.9452 10.1573 20.7365 10.5763 20.343L12.3795 18.6489L16.7791 21.6771C17.1753 21.9699 17.6064 22.1245 18.0268 22.1245C18.8801 22.1244 19.5606 21.4998 19.7606 20.5332L22.9453 5.13054C23.0761 4.49753 22.9705 3.93073 22.6479 3.5345ZM6.72096 14.3463L12.3405 11.3328L8.42405 14.9253C8.35547 14.9884 8.30075 15.065 8.26333 15.1504C8.22592 15.2357 8.20664 15.3279 8.20671 15.4211C8.20644 15.4281 8.20559 15.4348 8.20555 15.4417L8.19202 17.7136L6.72096 14.3463ZM9.65361 19.3607C9.61437 19.3977 9.57284 19.4321 9.52926 19.4639L9.54575 16.6984L11.2435 17.8669L9.65361 19.3607ZM21.6255 4.85763L18.4408 20.2602C18.4087 20.4155 18.304 20.7768 18.0267 20.7768C17.8972 20.7768 17.7366 20.7101 17.5744 20.589C17.5674 20.5838 17.5604 20.5788 17.5532 20.5739L12.7029 17.2354L12.7009 17.234L9.9586 15.3465L17.2027 8.70156C17.3237 8.59059 17.4 8.43927 17.4173 8.27602C17.4346 8.11277 17.3917 7.94882 17.2967 7.81495C17.2017 7.68108 17.0611 7.5865 16.9013 7.54897C16.7414 7.51144 16.5734 7.53355 16.4288 7.61113L5.80236 13.3097L1.67268 11.7963C1.66966 11.7952 1.66664 11.7941 1.6636 11.7931L21.1159 4.42286C21.2798 4.36073 21.3942 4.34771 21.4614 4.34771C21.4946 4.34771 21.5751 4.35139 21.6028 4.38553C21.6384 4.42924 21.6833 4.57789 21.6255 4.85763Z" fill="#31CAFF"/>
  </g>
  <defs>
    <clipPath id="clip0_1_314">
      <rect width="23" height="24" fill="white"/>
    </clipPath>
  </defs>
</svg>