<svg width="38" height="38" viewBox="0 0 38 38" fill="none" xmlns="http://www.w3.org/2000/svg">
<path d="M2.1065 34.8703L2.13747 34.7223L4.06295 25.5235C2.93338 23.291 2.35149 20.8343 2.36326 18.3461M2.1065 34.8703L2.46326 18.3464M2.1065 34.8703L2.25481 34.8408L11.7368 32.9603C14.031 34.0598 16.556 34.6284 19.1143 34.6214M2.1065 34.8703L19.114 34.5214M2.36326 18.3461C2.36326 18.3461 2.36326 18.346 2.36326 18.3459L2.46326 18.3464M2.36326 18.3461C2.36326 18.3462 2.36326 18.3463 2.36326 18.3464H2.46326M2.36326 18.3461C2.36339 9.37292 9.88406 2.07139 19.114 2.07139C28.3444 2.07139 35.8647 9.37305 35.8647 18.3464C35.8647 27.3196 28.3446 34.6212 19.1143 34.6214M2.46326 18.3464C2.46326 9.43099 9.93646 2.17139 19.114 2.17139C28.2919 2.17139 35.7647 9.43099 35.7647 18.3464C35.7647 27.2617 28.2919 34.5214 19.114 34.5214M19.1143 34.6214L19.114 34.5214M19.1143 34.6214C19.1142 34.6214 19.1141 34.6214 19.114 34.6214V34.5214M2.23535 34.7427L2.25762 34.6364L2.2159 34.6447L2.23535 34.7427ZM2.23535 34.7427L2.33323 34.7632L2.34194 34.7216L2.23535 34.7427ZM11.9922 31.1336L12.023 31.1491L12.2705 31.274L11.9922 31.1336ZM11.9922 31.1336L11.9585 31.1403M11.9922 31.1336L11.9585 31.1403M11.9585 31.1403L4.39607 32.6415M11.9585 31.1403L4.39607 32.6415M4.39607 32.6415L5.94099 25.2991L5.94849 25.2634L5.93128 25.2313L5.80251 24.9909C5.80249 24.9909 5.80248 24.9909 5.80246 24.9908C4.70943 22.9373 4.14229 20.6582 4.14894 18.3467V18.3464C4.14894 10.336 10.8608 3.81177 19.114 3.81177C27.3672 3.81177 34.079 10.336 34.079 18.3464C34.079 26.3567 27.3672 32.881 19.114 32.881H19.1137C16.7328 32.8874 14.3854 32.3362 12.2707 31.274L4.39607 32.6415Z" fill="white" stroke="white" stroke-width="0.2"/>
<path d="M18.4213 13.7253V13.7253C18.4189 14.4492 18.1229 15.1423 17.5985 15.6548L17.5983 15.655L17.41 15.8377C17.2272 16.0158 17.0824 16.227 16.9839 16.4592C16.8855 16.6913 16.8351 16.9399 16.8356 17.1908L18.4213 13.7253ZM18.4213 13.7253C18.4224 13.3663 18.3501 13.0109 18.2087 12.6794C18.0673 12.348 17.8597 12.0474 17.5981 11.7948L15.5466 9.81177C15.5466 9.81175 15.5466 9.81173 15.5466 9.81171C14.4868 8.78229 12.6411 8.78228 11.5817 9.81177C11.5817 9.81177 11.5817 9.81178 11.5817 9.81178L10.9278 10.4469C10.9277 10.447 10.9277 10.447 10.9276 10.4471C10.4748 10.8836 10.1153 11.4031 9.87018 11.9756C9.62499 12.5483 9.49901 13.1625 9.49961 13.7829M18.4213 13.7253L9.59961 13.7828M21.889 19.8055L21.8891 19.8055C22.9488 18.776 24.7945 18.776 25.8543 19.8055L25.8545 19.8056L27.9057 21.8082C29.0025 22.8739 29.0025 24.6024 27.9057 25.6678L27.2521 26.3031C27.2521 26.3032 27.252 26.3032 27.2519 26.3033C26.8014 26.7443 26.2653 27.0939 25.6748 27.3317C25.0843 27.5696 24.451 27.6911 23.8119 27.6893M21.889 19.8055L23.0787 27.5893C15.6453 27.5893 9.59961 21.7163 9.59961 14.4953V13.7828M21.889 19.8055L21.7014 19.9881C21.7013 19.9882 21.7012 19.9883 21.7011 19.9884C20.9563 20.7021 19.6307 20.7014 18.8965 19.9885L17.4104 18.5448C17.4103 18.5447 17.4102 18.5447 17.4101 18.5446L21.889 19.8055ZM23.8119 27.6893L23.8122 27.5893V27.6893H23.8119ZM23.8119 27.6893H23.0787C15.5928 27.6893 9.49961 21.7742 9.49961 14.4953L9.49961 13.7829M9.49961 13.7829L9.59961 13.7828M9.49961 13.7829L9.49961 13.7828H9.59961M26.7062 24.5082L26.052 25.1437C25.7587 25.4308 25.4098 25.6586 25.0253 25.814C24.6409 25.9694 24.2286 26.0492 23.8122 26.0489L26.7062 24.5082ZM26.7062 24.5082C26.8105 24.4072 26.8933 24.2872 26.9498 24.1551M26.7062 24.5082L26.9498 24.1551M13.5641 10.7439L13.5639 10.7439C13.2923 10.7436 13.0323 10.8481 12.8409 11.0336L12.1868 11.669L12.1865 11.6693C11.9005 11.9451 11.6736 12.273 11.519 12.6341C11.3644 12.9951 11.285 13.3823 11.2853 13.7731V13.7732L11.2853 14.4952L11.2853 14.4953M13.5641 10.7439L11.2853 14.4953M13.5641 10.7439C13.8357 10.7436 14.0958 10.8481 14.2873 11.0336C14.2873 11.0336 14.2874 11.0336 14.2874 11.0336L16.3389 13.0263L13.5641 10.7439ZM11.2853 14.4953C11.2909 20.8158 16.5652 25.9436 23.0787 25.9489M11.2853 14.4953L23.0787 25.9489M23.0787 25.9489H23.8122H23.8123C24.2158 25.9492 24.6154 25.8718 24.9879 25.7213C25.3603 25.5708 25.6982 25.3501 25.9821 25.0723L25.9823 25.072L26.6365 24.4365L26.6367 24.4364C26.7315 24.3445 26.8066 24.2355 26.8578 24.1158C26.909 23.996 26.9353 23.8677 26.9352 23.7382C26.9352 23.4765 26.8283 23.2253 26.6366 23.0397L26.6364 23.0394L24.5958 21.0472C24.1905 20.6732 23.5532 20.6732 23.1475 21.0473L22.9604 21.2295L22.9602 21.2296C21.4896 22.6567 19.1079 22.6567 17.6373 21.2296L17.6373 21.2295L16.1506 19.7854L16.1503 19.7851C15.446 19.0959 15.0501 18.1636 15.0499 17.1912C15.0499 17.1912 15.0499 17.1911 15.0499 17.1911L23.0787 25.9489ZM26.9498 24.1551C27.0062 24.0229 27.0353 23.8812 27.0352 23.7382M26.9498 24.1551L27.0352 23.7382M27.0352 23.7382C27.0352 23.449 26.917 23.172 26.7062 22.9678L27.0352 23.7382ZM16.3386 14.424L16.1507 14.6064L16.339 13.0264C16.5298 13.2123 16.6362 13.4635 16.6356 13.7248C16.6351 13.986 16.5288 14.2371 16.3388 14.4238C16.3388 14.4238 16.3387 14.4239 16.3386 14.424Z" fill="white" stroke="white" stroke-width="0.2"/>
</svg>
